<svg width="59" height="60" viewBox="0 0 59 60" fill="none" xmlns="http://www.w3.org/2000/svg">
<path d="M30.2195 21.7769C25.451 21.7769 21.5854 25.6425 21.5854 30.4111C21.5854 35.1796 25.451 39.0452 30.2195 39.0452C34.988 39.0452 38.8537 35.1796 38.8537 30.4111C38.8537 25.6425 34.988 21.7769 30.2195 21.7769Z" fill="white"/>
<path fill-rule="evenodd" clip-rule="evenodd" d="M0 3.06961C0 1.48008 1.28848 0.191559 2.87805 0.191559H56.122C57.7115 0.191559 59 1.48008 59 3.06961V56.3135C59 57.903 57.7115 59.1916 56.122 59.1916H2.87805C1.28848 59.1916 0 57.903 0 56.3135V3.06961ZM12.9512 30.4111C12.9512 20.8741 20.6825 13.1428 30.2195 13.1428C39.7566 13.1428 47.4878 20.8741 47.4878 30.4111C47.4878 39.9481 39.7566 47.6794 30.2195 47.6794C20.6825 47.6794 12.9512 39.9481 12.9512 30.4111ZM47.4878 14.5818C49.0774 14.5818 50.3659 13.2933 50.3659 11.7038C50.3659 10.1142 49.0774 8.82571 47.4878 8.82571C45.8982 8.82571 44.6098 10.1142 44.6098 11.7038C44.6098 13.2933 45.8982 14.5818 47.4878 14.5818Z" fill="white"/>
</svg>
