<svg width="35" height="35" viewBox="0 0 35 35" fill="none" xmlns="http://www.w3.org/2000/svg">
<path d="M10.3471 0H24.6971C30.1637 0 34.6054 4.44167 34.6054 9.90833V24.2583C34.6054 26.8862 33.5615 29.4064 31.7033 31.2646C29.8451 33.1228 27.3249 34.1667 24.6971 34.1667H10.3471C4.88039 34.1667 0.438721 29.725 0.438721 24.2583V9.90833C0.438721 7.28048 1.48263 4.76026 3.3408 2.90208C5.19898 1.04391 7.7192 0 10.3471 0ZM10.0054 3.41667C8.37431 3.41667 6.81003 4.06461 5.65668 5.21796C4.50333 6.37131 3.85539 7.93559 3.85539 9.56667V24.6C3.85539 27.9996 6.6058 30.75 10.0054 30.75H25.0387C26.6698 30.75 28.2341 30.1021 29.3874 28.9487C30.5408 27.7954 31.1887 26.2311 31.1887 24.6V9.56667C31.1887 6.16708 28.4383 3.41667 25.0387 3.41667H10.0054ZM26.4908 5.97917C27.0572 5.97917 27.6003 6.20415 28.0008 6.60462C28.4012 7.00508 28.6262 7.54824 28.6262 8.11458C28.6262 8.68093 28.4012 9.22408 28.0008 9.62455C27.6003 10.025 27.0572 10.25 26.4908 10.25C25.9245 10.25 25.3813 10.025 24.9808 9.62455C24.5804 9.22408 24.3554 8.68093 24.3554 8.11458C24.3554 7.54824 24.5804 7.00508 24.9808 6.60462C25.3813 6.20415 25.9245 5.97917 26.4908 5.97917ZM17.5221 8.54167C19.7874 8.54167 21.9601 9.44159 23.5619 11.0435C25.1638 12.6453 26.0637 14.8179 26.0637 17.0833C26.0637 19.3487 25.1638 21.5213 23.5619 23.1232C21.9601 24.7251 19.7874 25.625 17.5221 25.625C15.2567 25.625 13.0841 24.7251 11.4822 23.1232C9.88031 21.5213 8.98039 19.3487 8.98039 17.0833C8.98039 14.8179 9.88031 12.6453 11.4822 11.0435C13.0841 9.44159 15.2567 8.54167 17.5221 8.54167ZM17.5221 11.9583C16.1628 11.9583 14.8593 12.4983 13.8981 13.4594C12.937 14.4205 12.3971 15.7241 12.3971 17.0833C12.3971 18.4426 12.937 19.7461 13.8981 20.7073C14.8593 21.6684 16.1628 22.2083 17.5221 22.2083C18.8813 22.2083 20.1849 21.6684 21.146 20.7073C22.1071 19.7461 22.6471 18.4426 22.6471 17.0833C22.6471 15.7241 22.1071 14.4205 21.146 13.4594C20.1849 12.4983 18.8813 11.9583 17.5221 11.9583Z" fill="white"/>
</svg>
