<svg width="59" height="59" viewBox="0 0 59 59" fill="none" xmlns="http://www.w3.org/2000/svg">
<path d="M54.6373 0.000412495H4.36268C3.79754 -0.00738903 3.2364 0.0955413 2.71129 0.303325C2.18618 0.51111 1.70739 0.819677 1.30227 1.21141C0.897143 1.60313 0.573622 2.07035 0.350177 2.58637C0.126732 3.1024 0.00774121 3.65712 0 4.21885V54.7811C0.00774121 55.3429 0.126732 55.8976 0.350177 56.4136C0.573622 56.9296 0.897143 57.3969 1.30227 57.7886C1.70739 58.1803 2.18618 58.4889 2.71129 58.6967C3.2364 58.9045 3.79754 59.0074 4.36268 58.9996H54.6373C55.2025 59.0074 55.7636 58.9045 56.2887 58.6967C56.8138 58.4889 57.2926 58.1803 57.6977 57.7886C58.1029 57.3969 58.4264 56.9296 58.6498 56.4136C58.8733 55.8976 58.9923 55.3429 59 54.7811V4.21885C58.9923 3.65712 58.8733 3.1024 58.6498 2.58637C58.4264 2.07035 58.1029 1.60313 57.6977 1.21141C57.2926 0.819677 56.8138 0.51111 56.2887 0.303325C55.7636 0.0955413 55.2025 -0.00738903 54.6373 0.000412495ZM17.8959 49.3827H8.99245V22.8331H17.8959V49.3827ZM13.4442 19.1161C12.2163 19.1161 11.0387 18.6313 10.1704 17.7683C9.30216 16.9052 8.81439 15.7347 8.81439 14.5142C8.81439 13.2937 9.30216 12.1232 10.1704 11.2601C11.0387 10.3971 12.2163 9.91227 13.4442 9.91227C14.0962 9.83877 14.7565 9.90299 15.3818 10.1007C16.0071 10.2985 16.5833 10.6252 17.0728 11.0597C17.5622 11.4941 17.9538 12.0264 18.222 12.6218C18.4901 13.2171 18.6287 13.862 18.6287 14.5142C18.6287 15.1665 18.4901 15.8113 18.222 16.4067C17.9538 17.002 17.5622 17.5343 17.0728 17.9687C16.5833 18.4032 16.0071 18.73 15.3818 18.9277C14.7565 19.1254 14.0962 19.1896 13.4442 19.1161ZM50.0075 49.3827H41.1041V35.1344C41.1041 31.565 39.828 29.2345 36.5931 29.2345C35.5919 29.2418 34.6171 29.5539 33.7999 30.1288C32.9827 30.7038 32.3624 31.5139 32.0226 32.45C31.7904 33.1433 31.6898 33.8735 31.7259 34.6034V49.3532H22.8224V22.8036H31.7259V26.55C32.5347 25.155 33.711 24.0058 35.1283 23.226C36.5455 22.4463 38.1499 22.0657 39.7686 22.1251C45.7042 22.1251 50.0075 25.9306 50.0075 34.1019V49.3827Z" fill="white"/>
</svg>
