<svg width="256" height="36" viewBox="0 0 256 36" fill="none" xmlns="http://www.w3.org/2000/svg">
<path d="M53.3485 28V8.1936H57.14L68.8258 22.4542H66.9866V8.1936H71.5138V28H67.7506L56.0365 13.7394H57.8757V28H53.3485ZM76.1999 28V8.1936H80.7837V28H76.1999ZM90.4074 28V19.9077L91.4544 22.6806L82.7395 8.1936H87.6063L94.2838 19.3135H91.4827L98.1885 8.1936H102.687L93.9726 22.6806L94.9912 19.9077V28H90.4074ZM113.369 28.3395C111.803 28.3395 110.351 28.0849 109.012 27.5756C107.691 27.0663 106.54 26.3495 105.56 25.4252C104.598 24.5009 103.843 23.4162 103.296 22.1713C102.768 20.9263 102.504 19.5681 102.504 18.0968C102.504 16.6255 102.768 15.2673 103.296 14.0223C103.843 12.7774 104.607 11.6927 105.588 10.7684C106.569 9.84413 107.719 9.12733 109.04 8.61802C110.36 8.10871 111.794 7.85406 113.341 7.85406C114.906 7.85406 116.34 8.10871 117.641 8.61802C118.962 9.12733 120.103 9.84413 121.065 10.7684C122.046 11.6927 122.81 12.7774 123.357 14.0223C123.904 15.2484 124.178 16.6066 124.178 18.0968C124.178 19.5681 123.904 20.9357 123.357 22.1996C122.81 23.4445 122.046 24.5292 121.065 25.4535C120.103 26.3589 118.962 27.0663 117.641 27.5756C116.34 28.0849 114.916 28.3395 113.369 28.3395ZM113.341 24.4348C114.227 24.4348 115.038 24.2839 115.774 23.9821C116.529 23.6803 117.189 23.2465 117.755 22.6806C118.321 22.1147 118.754 21.445 119.056 20.6716C119.377 19.8982 119.537 19.04 119.537 18.0968C119.537 17.1536 119.377 16.2954 119.056 15.522C118.754 14.7486 118.321 14.0789 117.755 13.513C117.208 12.9471 116.557 12.5133 115.802 12.2115C115.048 11.9097 114.227 11.7587 113.341 11.7587C112.454 11.7587 111.634 11.9097 110.879 12.2115C110.143 12.5133 109.493 12.9471 108.927 13.513C108.361 14.0789 107.917 14.7486 107.597 15.522C107.295 16.2954 107.144 17.1536 107.144 18.0968C107.144 19.0211 107.295 19.8794 107.597 20.6716C107.917 21.445 108.351 22.1147 108.898 22.6806C109.464 23.2465 110.124 23.6803 110.879 23.9821C111.634 24.2839 112.454 24.4348 113.341 24.4348ZM128.5 28V8.1936H136.564C138.676 8.1936 140.525 8.61802 142.109 9.46687C143.713 10.2968 144.958 11.4569 145.844 12.9471C146.731 14.4373 147.174 16.1539 147.174 18.0968C147.174 20.0397 146.731 21.7563 145.844 23.2465C144.958 24.7367 143.713 25.9062 142.109 26.755C140.525 27.585 138.676 28 136.564 28H128.5ZM130.593 26.1891H136.45C138.205 26.1891 139.723 25.8496 141.006 25.1705C142.308 24.4726 143.317 23.52 144.034 22.3127C144.75 21.0866 145.109 19.6813 145.109 18.0968C145.109 16.4934 144.75 15.0881 144.034 13.8809C143.317 12.6736 142.308 11.7305 141.006 11.0514C139.723 10.3534 138.205 10.0045 136.45 10.0045H130.593V26.1891ZM153.744 17.0499H164.213V18.8325H153.744V17.0499ZM153.97 26.1891H165.882V28H151.876V8.1936H165.458V10.0045H153.97V26.1891ZM176.265 28.1698C174.793 28.1698 173.379 27.934 172.02 27.4624C170.681 26.972 169.644 26.3495 168.908 25.5949L169.729 23.9821C170.426 24.6612 171.36 25.2365 172.53 25.7081C173.718 26.1608 174.963 26.3872 176.265 26.3872C177.51 26.3872 178.519 26.2363 179.292 25.9345C180.084 25.6138 180.66 25.1894 181.018 24.6612C181.395 24.133 181.584 23.5483 181.584 22.9069C181.584 22.1335 181.358 21.511 180.905 21.0395C180.471 20.5679 179.896 20.2 179.179 19.936C178.462 19.653 177.67 19.4078 176.802 19.2003C175.935 18.9928 175.067 18.7759 174.199 18.5495C173.331 18.3043 172.53 17.9836 171.794 17.5875C171.077 17.1914 170.493 16.6726 170.04 16.0313C169.606 15.3711 169.389 14.5128 169.389 13.4564C169.389 12.4756 169.644 11.5795 170.153 10.7684C170.681 9.93845 171.483 9.27823 172.558 8.78779C173.633 8.27848 175.01 8.02383 176.689 8.02383C177.802 8.02383 178.906 8.18417 180 8.50484C181.094 8.80665 182.037 9.23107 182.829 9.77811L182.122 11.4475C181.273 10.8816 180.367 10.4666 179.405 10.2025C178.462 9.93845 177.547 9.8064 176.661 9.8064C175.472 9.8064 174.492 9.96674 173.718 10.2874C172.945 10.6081 172.369 11.0419 171.992 11.589C171.634 12.1172 171.455 12.7208 171.455 13.3999C171.455 14.1732 171.671 14.7957 172.105 15.2673C172.558 15.7389 173.143 16.1067 173.86 16.3708C174.595 16.6349 175.397 16.8707 176.265 17.0782C177.132 17.2857 177.991 17.512 178.839 17.7573C179.707 18.0025 180.499 18.3232 181.216 18.7193C181.952 19.0965 182.537 19.6059 182.971 20.2472C183.423 20.8886 183.65 21.728 183.65 22.7655C183.65 23.7275 183.386 24.6235 182.857 25.4535C182.329 26.2646 181.518 26.9248 180.424 27.4341C179.349 27.9245 177.962 28.1698 176.265 28.1698ZM188.212 28V8.1936H190.306V28H188.212ZM205.436 28.1698C203.927 28.1698 202.532 27.9245 201.249 27.4341C199.985 26.9248 198.881 26.2174 197.938 25.312C197.014 24.4066 196.288 23.3408 195.76 22.1147C195.25 20.8886 194.996 19.5493 194.996 18.0968C194.996 16.6443 195.25 15.305 195.76 14.0789C196.288 12.8528 197.023 11.787 197.967 10.8816C198.91 9.97617 200.013 9.27823 201.277 8.78779C202.56 8.27848 203.956 8.02383 205.465 8.02383C206.974 8.02383 208.351 8.25962 209.596 8.7312C210.86 9.20278 211.935 9.91958 212.821 10.8816L211.52 12.2115C210.69 11.3815 209.775 10.7873 208.775 10.4289C207.775 10.0705 206.7 9.89129 205.55 9.89129C204.324 9.89129 203.192 10.0988 202.154 10.5138C201.136 10.9099 200.24 11.4852 199.466 12.2398C198.712 12.9754 198.118 13.8431 197.684 14.8429C197.269 15.8238 197.061 16.9084 197.061 18.0968C197.061 19.2663 197.269 20.351 197.684 21.3507C198.118 22.3505 198.712 23.2276 199.466 23.9821C200.24 24.7178 201.136 25.2931 202.154 25.7081C203.192 26.1042 204.314 26.3023 205.521 26.3023C206.653 26.3023 207.719 26.1325 208.719 25.793C209.737 25.4535 210.671 24.8781 211.52 24.067L212.708 25.6515C211.765 26.4815 210.662 27.1134 209.398 27.5473C208.134 27.9623 206.813 28.1698 205.436 28.1698ZM210.699 25.3969V18.0968H212.708V25.6515L210.699 25.3969ZM218.634 28V8.1936H220.36L234.027 25.3969H233.121V8.1936H235.187V28H233.461L219.823 10.7967H220.728V28H218.634ZM247.112 28.1698C245.641 28.1698 244.226 27.934 242.868 27.4624C241.529 26.972 240.491 26.3495 239.756 25.5949L240.576 23.9821C241.274 24.6612 242.208 25.2365 243.377 25.7081C244.566 26.1608 245.811 26.3872 247.112 26.3872C248.357 26.3872 249.367 26.2363 250.14 25.9345C250.932 25.6138 251.507 25.1894 251.866 24.6612C252.243 24.133 252.432 23.5483 252.432 22.9069C252.432 22.1335 252.205 21.511 251.753 21.0395C251.319 20.5679 250.744 20.2 250.027 19.936C249.31 19.653 248.518 19.4078 247.65 19.2003C246.782 18.9928 245.915 18.7759 245.047 18.5495C244.179 18.3043 243.377 17.9836 242.642 17.5875C241.925 17.1914 241.34 16.6726 240.887 16.0313C240.454 15.3711 240.237 14.5128 240.237 13.4564C240.237 12.4756 240.491 11.5795 241.001 10.7684C241.529 9.93845 242.331 9.27823 243.406 8.78779C244.481 8.27848 245.858 8.02383 247.537 8.02383C248.65 8.02383 249.753 8.18417 250.847 8.50484C251.941 8.80665 252.885 9.23107 253.677 9.77811L252.969 11.4475C252.121 10.8816 251.215 10.4666 250.253 10.2025C249.31 9.93845 248.395 9.8064 247.508 9.8064C246.32 9.8064 245.339 9.96674 244.566 10.2874C243.792 10.6081 243.217 11.0419 242.84 11.589C242.481 12.1172 242.302 12.7208 242.302 13.3999C242.302 14.1732 242.519 14.7957 242.953 15.2673C243.406 15.7389 243.99 16.1067 244.707 16.3708C245.443 16.6349 246.245 16.8707 247.112 17.0782C247.98 17.2857 248.838 17.512 249.687 17.7573C250.555 18.0025 251.347 18.3232 252.064 18.7193C252.8 19.0965 253.384 19.6059 253.818 20.2472C254.271 20.8886 254.497 21.728 254.497 22.7655C254.497 23.7275 254.233 24.6235 253.705 25.4535C253.177 26.2646 252.366 26.9248 251.272 27.4341C250.196 27.9245 248.81 28.1698 247.112 28.1698Z" fill="white"/>
<path d="M32.1539 21.4318H37.0286V36H30.834L4.87466 6.69526V14.5682H0V0H6.19458L32.1539 29.3047V21.4318Z" fill="white"/>
<path d="M37.0286 0V14.5565H32.1539V4.81416H24.2252L19.8762 0H37.0286Z" fill="white"/>
<path d="M12.8034 31.1845L17.1537 35.9987H0V21.4422H4.87466V31.1832H12.8034V31.1845Z" fill="white"/>
</svg>
