<svg width="69" height="70" viewBox="0 0 69 70" fill="none" xmlns="http://www.w3.org/2000/svg">
<path d="M58.1332 10.8458C54.9981 7.67896 51.2638 5.1681 47.1482 3.45961C43.0325 1.75112 38.6179 0.879211 34.1618 0.894735C15.4908 0.894735 0.273568 16.1119 0.273568 34.7829C0.273568 40.7672 1.84658 46.5806 4.78744 51.7099L0 69.2867L17.9529 64.5676C22.9113 67.2691 28.4852 68.7053 34.1618 68.7053C52.8328 68.7053 68.05 53.4881 68.05 34.8171C68.05 25.7552 64.5278 17.2404 58.1332 10.8458ZM34.1618 62.9604C29.1008 62.9604 24.1424 61.5926 19.7995 59.0279L18.7736 58.4124L8.10445 61.2164L10.9427 50.8209L10.2588 49.7608C7.44701 45.2707 5.954 40.0807 5.9501 34.7829C5.9501 19.258 18.6026 6.60546 34.1276 6.60546C41.6507 6.60546 48.7293 9.54632 54.0296 14.8809C56.6541 17.4933 58.734 20.6007 60.1486 24.0229C61.5633 27.4451 62.2847 31.1141 62.2709 34.8171C62.3393 50.3421 49.6867 62.9604 34.1618 62.9604ZM49.6184 41.8957C48.7635 41.4854 44.5915 39.4336 43.8392 39.1258C43.0527 38.8523 42.5056 38.7155 41.9243 39.5362C41.3429 40.3911 39.7357 42.3061 39.257 42.8532C38.7782 43.4345 38.2653 43.5029 37.4104 43.0584C36.5555 42.648 33.8198 41.7247 30.6054 38.8523C28.0749 36.5953 26.3993 33.8255 25.8863 32.9706C25.4076 32.1157 25.818 31.6711 26.2625 31.2266C26.6387 30.8504 27.1174 30.2349 27.5278 29.7561C27.9381 29.2774 28.1091 28.9012 28.3827 28.3541C28.6562 27.7728 28.5194 27.294 28.3143 26.8837C28.1091 26.4733 26.3993 22.3014 25.7154 20.5916C25.0315 18.9502 24.3133 19.1554 23.8004 19.1212H22.159C21.5777 19.1212 20.6886 19.3264 19.9021 20.1813C19.1497 21.0362 16.9612 23.0879 16.9612 27.2598C16.9612 31.4317 20.0046 35.4669 20.415 36.014C20.8253 36.5953 26.3993 45.1443 34.8799 48.8033C36.8975 49.6924 38.4705 50.2053 39.7015 50.5815C41.7191 51.2312 43.5657 51.1286 45.0361 50.9234C46.6775 50.6841 50.0629 48.8717 50.7468 46.8883C51.4649 44.9049 51.4649 43.2293 51.2256 42.8532C50.9862 42.477 50.4733 42.3061 49.6184 41.8957Z" fill="#02C2FF"/>
</svg>
