<svg width="59" height="66" viewBox="0 0 59 66" fill="none" xmlns="http://www.w3.org/2000/svg">
<path d="M51.9018 0C55.7329 0 58.8182 3.09753 59 6.74672V65.3831L51.7098 59.1901L47.7092 55.5511L43.3346 51.7405L45.1551 57.7435H6.91826C3.09744 57.7435 0.00195312 54.8483 0.00195312 50.9968V6.75898C0.00195312 3.10978 3.09948 0.0122593 6.93052 0.0122593H51.8814L51.9018 0ZM35.2353 15.4835H35.1495L34.5958 16.027C40.2473 17.6657 42.9811 20.2197 42.9811 20.2197C39.3422 18.3992 36.0526 17.4839 32.7752 17.112C30.4133 16.7503 28.0391 16.9424 26.0387 17.112H25.485C24.208 17.112 21.4844 17.6657 17.8332 19.1225C16.5664 19.6762 15.8328 20.0379 15.8328 20.0379C15.8328 20.0379 18.5565 17.302 24.5799 15.8452L24.208 15.4835C24.208 15.4835 19.6537 15.3017 14.7377 18.9427C14.7377 18.9427 9.82168 27.5099 9.82168 38.0652C9.82168 38.0652 12.5453 42.8014 20.0174 42.9812C20.0174 42.9812 21.1125 41.5346 22.2097 40.2576C18.017 38.9806 16.3784 36.4266 16.3784 36.4266C16.3784 36.4266 16.7502 36.6084 17.2937 36.9701H17.4531C17.5389 36.9701 17.5818 37.013 17.6227 37.0559V37.0763C17.6656 37.1192 17.7085 37.1499 17.7821 37.1499C18.6872 37.5217 19.5801 37.8834 20.3157 38.245C21.5927 38.7885 23.2211 39.3402 25.2214 39.7039C27.755 40.0758 30.6585 40.2474 33.9685 39.7039C35.5969 39.332 37.2356 38.9806 38.8743 38.245C39.9286 37.7015 41.2362 37.1601 42.6726 36.2345C42.6726 36.2345 41.0442 38.7885 36.6696 40.0655C37.5646 41.3323 38.8293 42.7892 38.8293 42.7892C46.3095 42.6196 49.215 37.8834 49.3744 38.0857C49.3744 27.5406 44.4257 18.9631 44.4257 18.9631C39.9776 15.6531 35.8053 15.5264 35.0718 15.5264L35.221 15.4733L35.2353 15.4835ZM35.693 27.5099C37.6095 27.5099 39.1521 29.1384 39.1521 31.1387C39.1521 33.1615 37.5993 34.7879 35.693 34.7879C33.7764 34.7879 32.2338 33.1595 32.2338 31.1591C32.2338 29.1364 33.7866 27.5099 35.693 27.5099ZM23.3172 27.5099C25.2214 27.5099 26.7661 29.1384 26.7661 31.1387C26.7661 33.1615 25.2133 34.7879 23.3069 34.7879C21.3904 34.7879 19.8376 33.1595 19.8376 31.1591C19.8376 29.1364 21.3904 27.5099 23.3069 27.5099H23.3172Z" fill="white"/>
</svg>
